<?xml version="1.0" encoding="UTF-8"?>
<svg id="Capa_1" data-name="Capa 1" xmlns="http://www.w3.org/2000/svg" viewBox="0 0 800 800">
  <defs>
    <style>
      .cls-1 {
        fill: #9810fa;
      }

      .cls-2 {
        fill: #155dfc;
      }

      .cls-3 {
        fill: #d08700;
      }
    </style>
  </defs>
  <path class="cls-2" d="M646.98,292.61c11.32,29.45,17.52,61.43,17.52,94.87,0,146.08-118.42,264.5-264.5,264.5-47.62,0-92.29-12.58-130.88-34.6l377.85-324.77h.01Z"/>
  <polygon class="cls-2" points="646.97 292.61 269.12 617.38 400 387.48 646.97 292.61"/>
  <path class="cls-3" d="M646.97,292.61l-246.97,94.87-187.41-186.64c47.89-48.1,114.17-77.86,187.41-77.86,112.64,0,208.84,70.41,246.97,169.63Z"/>
  <path class="cls-1" d="M400,387.48l-130.88,229.9c-79.82-45.54-133.62-131.44-133.62-229.9,0-72.84,29.44-138.8,77.09-186.64l187.41,186.64Z"/>
</svg>